<mxfile host="app.diagrams.net" modified="2023-12-15T08:18:18.656Z" agent="Mozilla/5.0 (Macintosh; Intel Mac OS X 10_15_7) AppleWebKit/537.36 (KHTML, like Gecko) Chrome/120.0.0.0 Safari/537.36" etag="5iHVW7eOEFFap1eaaKOT" version="22.1.7" type="github">
  <diagram name="第 1 页" id="XmhbTnMwabOWhy2UjrGB">
    <mxGraphModel dx="1781" dy="501" grid="1" gridSize="10" guides="1" tooltips="1" connect="1" arrows="1" fold="1" page="1" pageScale="1" pageWidth="827" pageHeight="1169" math="0" shadow="0">
      <root>
        <mxCell id="0" />
        <mxCell id="1" parent="0" />
        <mxCell id="M6eYinv3Dhb1d-7CIOUu-2" value="banner&lt;br&gt;广&lt;br&gt;告&lt;br&gt;业&lt;br&gt;务&lt;br&gt;架&lt;br&gt;构" style="rounded=0;html=1;labelPosition=center;verticalLabelPosition=middle;align=center;verticalAlign=middle;whiteSpace=wrap;horizontal=1;fillColor=#0050ef;fontColor=#ffffff;strokeColor=#001DBC;" parent="1" vertex="1">
          <mxGeometry x="-620" y="100" width="40" height="450" as="geometry" />
        </mxCell>
        <mxCell id="M6eYinv3Dhb1d-7CIOUu-3" value="" style="line;strokeWidth=2;html=1;dashed=1;" parent="1" vertex="1">
          <mxGeometry x="-540" y="220" width="580" height="10" as="geometry" />
        </mxCell>
        <mxCell id="M6eYinv3Dhb1d-7CIOUu-4" value="Text" style="text;html=1;strokeColor=none;fillColor=none;align=center;verticalAlign=middle;whiteSpace=wrap;rounded=0;" parent="1" vertex="1">
          <mxGeometry x="230" y="1070" width="60" height="30" as="geometry" />
        </mxCell>
        <mxCell id="M6eYinv3Dhb1d-7CIOUu-5" value="广告配置系统" style="text;html=1;strokeColor=none;fillColor=none;align=center;verticalAlign=middle;whiteSpace=wrap;rounded=0;" parent="1" vertex="1">
          <mxGeometry x="-530" y="140" width="60" height="30" as="geometry" />
        </mxCell>
        <mxCell id="M6eYinv3Dhb1d-7CIOUu-6" value="广告服务系统" style="text;html=1;strokeColor=none;fillColor=none;align=center;verticalAlign=middle;whiteSpace=wrap;rounded=0;" parent="1" vertex="1">
          <mxGeometry x="-530" y="260" width="60" height="30" as="geometry" />
        </mxCell>
        <mxCell id="M6eYinv3Dhb1d-7CIOUu-7" value="" style="line;strokeWidth=2;html=1;dashed=1;" parent="1" vertex="1">
          <mxGeometry x="-540" y="330" width="580" height="10" as="geometry" />
        </mxCell>
        <mxCell id="M6eYinv3Dhb1d-7CIOUu-8" value="" style="line;strokeWidth=2;html=1;dashed=1;" parent="1" vertex="1">
          <mxGeometry x="-540" y="460" width="580" height="10" as="geometry" />
        </mxCell>
        <mxCell id="M6eYinv3Dhb1d-7CIOUu-9" value="移动端" style="text;html=1;strokeColor=none;fillColor=none;align=center;verticalAlign=middle;whiteSpace=wrap;rounded=0;" parent="1" vertex="1">
          <mxGeometry x="-530" y="380" width="60" height="30" as="geometry" />
        </mxCell>
        <mxCell id="M6eYinv3Dhb1d-7CIOUu-10" value="广告数据分析系统" style="text;html=1;strokeColor=none;fillColor=none;align=center;verticalAlign=middle;whiteSpace=wrap;rounded=0;" parent="1" vertex="1">
          <mxGeometry x="-530" y="499" width="60" height="30" as="geometry" />
        </mxCell>
        <mxCell id="M6eYinv3Dhb1d-7CIOUu-11" value="" style="rounded=1;whiteSpace=wrap;html=1;fillColor=#1ba1e2;fontColor=#ffffff;strokeColor=#006EAF;" parent="1" vertex="1">
          <mxGeometry x="-450" y="110" width="480" height="80" as="geometry" />
        </mxCell>
        <mxCell id="M6eYinv3Dhb1d-7CIOUu-12" value="投放管理" style="rounded=1;whiteSpace=wrap;html=1;fillColor=#d80073;fontColor=#ffffff;strokeColor=#A50040;" parent="1" vertex="1">
          <mxGeometry x="-420" y="130" width="100" height="40" as="geometry" />
        </mxCell>
        <mxCell id="M6eYinv3Dhb1d-7CIOUu-13" value="素材管理" style="rounded=1;whiteSpace=wrap;html=1;fillColor=#d80073;fontColor=#ffffff;strokeColor=#A50040;" parent="1" vertex="1">
          <mxGeometry x="-280" y="130" width="100" height="40" as="geometry" />
        </mxCell>
        <mxCell id="M6eYinv3Dhb1d-7CIOUu-14" value="控制管理" style="rounded=1;whiteSpace=wrap;html=1;fillColor=#d80073;fontColor=#ffffff;strokeColor=#A50040;" parent="1" vertex="1">
          <mxGeometry x="-120" y="130" width="110" height="40" as="geometry" />
        </mxCell>
        <mxCell id="M6eYinv3Dhb1d-7CIOUu-15" value="" style="rounded=1;whiteSpace=wrap;html=1;fillColor=#008a00;fontColor=#ffffff;strokeColor=#005700;" parent="1" vertex="1">
          <mxGeometry x="-450" y="250" width="480" height="70" as="geometry" />
        </mxCell>
        <mxCell id="M6eYinv3Dhb1d-7CIOUu-16" value="" style="rounded=1;whiteSpace=wrap;html=1;fillColor=#fa6800;fontColor=#000000;strokeColor=#C73500;" parent="1" vertex="1">
          <mxGeometry x="-430" y="267.5" width="110" height="35" as="geometry" />
        </mxCell>
        <mxCell id="M6eYinv3Dhb1d-7CIOUu-17" value="" style="rounded=1;whiteSpace=wrap;html=1;fillColor=#e3c800;fontColor=#000000;strokeColor=#B09500;" parent="1" vertex="1">
          <mxGeometry x="-450" y="360.31" width="480" height="70" as="geometry" />
        </mxCell>
        <mxCell id="M6eYinv3Dhb1d-7CIOUu-18" value="视图渲染" style="rounded=1;whiteSpace=wrap;html=1;" parent="1" vertex="1">
          <mxGeometry x="-430" y="376.25" width="100" height="37.5" as="geometry" />
        </mxCell>
        <mxCell id="M6eYinv3Dhb1d-7CIOUu-19" value="数据处理" style="rounded=1;whiteSpace=wrap;html=1;" parent="1" vertex="1">
          <mxGeometry x="-305" y="376.25" width="95" height="37.5" as="geometry" />
        </mxCell>
        <mxCell id="M6eYinv3Dhb1d-7CIOUu-20" value="控制" style="rounded=1;whiteSpace=wrap;html=1;" parent="1" vertex="1">
          <mxGeometry x="-180" y="376.25" width="90" height="33.75" as="geometry" />
        </mxCell>
        <mxCell id="M6eYinv3Dhb1d-7CIOUu-21" value="监控" style="rounded=1;whiteSpace=wrap;html=1;" parent="1" vertex="1">
          <mxGeometry x="-70" y="376.25" width="90" height="38.12" as="geometry" />
        </mxCell>
        <mxCell id="M6eYinv3Dhb1d-7CIOUu-22" value="" style="rounded=1;whiteSpace=wrap;html=1;fillColor=#647687;fontColor=#ffffff;strokeColor=#314354;" parent="1" vertex="1">
          <mxGeometry x="-450" y="484" width="480" height="66" as="geometry" />
        </mxCell>
        <mxCell id="M6eYinv3Dhb1d-7CIOUu-23" value="墨盘" style="rounded=1;whiteSpace=wrap;html=1;fillColor=#e51400;strokeColor=#B20000;fontColor=#ffffff;" parent="1" vertex="1">
          <mxGeometry x="-421.25" y="500" width="102.5" height="37" as="geometry" />
        </mxCell>
        <mxCell id="M6eYinv3Dhb1d-7CIOUu-24" value="可视化数据分析" style="rounded=1;whiteSpace=wrap;html=1;fillColor=#e51400;fontColor=#ffffff;strokeColor=#B20000;" parent="1" vertex="1">
          <mxGeometry x="-120" y="497" width="110" height="43" as="geometry" />
        </mxCell>
        <mxCell id="M6eYinv3Dhb1d-7CIOUu-25" value="数据解析" style="rounded=1;whiteSpace=wrap;html=1;fillColor=#e51400;fontColor=#ffffff;strokeColor=#B20000;" parent="1" vertex="1">
          <mxGeometry x="-280" y="497" width="120" height="40" as="geometry" />
        </mxCell>
      </root>
    </mxGraphModel>
  </diagram>
</mxfile>
